<svg width="192" height="192" viewBox="0 0 192 192" fill="none" xmlns="http://www.w3.org/2000/svg">
<g clip-path="url(#clip0_1_19)">
<rect width="192" height="192" rx="30" fill="#00465F"/>
<g clip-path="url(#clip1_1_19)">
<g filter="url(#filter0_d_1_19)">
<path d="M37.3332 176C33.7332 176 30.611 174.678 27.9666 172.033C25.3222 169.389 24 166.267 24 162.667V42.6666C24 39.0666 25.3222 35.9444 27.9666 33.3C30.611 30.6555 33.7332 29.3332 37.3332 29.3332H48.6666V16H62.6666V29.3332H129.333V16H143.333V29.3332H154.667C158.267 29.3332 161.389 30.6555 164.033 33.3C166.678 35.9444 168 39.0666 168 42.6666V162.667C168 166.267 166.678 169.389 164.033 172.033C161.389 174.678 158.267 176 154.667 176H37.3332ZM37.3332 162.667H154.667V78.6666H37.3332V162.667ZM37.3332 65.3334H154.667V42.6666H37.3332V65.3334ZM96 112C93.7333 112 91.8333 111.233 90.3 109.7C88.7667 108.167 88 106.267 88 104C88 101.733 88.7667 99.8333 90.3 98.3C91.8333 96.7667 93.7333 96 96 96C98.2667 96 100.167 96.7667 101.7 98.3C103.233 99.8333 104 101.733 104 104C104 106.267 103.233 108.167 101.7 109.7C100.167 111.233 98.2667 112 96 112ZM64 112C61.7333 112 59.8333 111.233 58.3 109.7C56.7667 108.167 56 106.267 56 104C56 101.733 56.7667 99.8333 58.3 98.3C59.8333 96.7667 61.7333 96 64 96C66.2667 96 68.1667 96.7667 69.7 98.3C71.2333 99.8333 72 101.733 72 104C72 106.267 71.2333 108.167 69.7 109.7C68.1667 111.233 66.2667 112 64 112ZM128 112C125.733 112 123.833 111.233 122.3 109.7C120.767 108.167 120 106.267 120 104C120 101.733 120.767 99.8333 122.3 98.3C123.833 96.7667 125.733 96 128 96C130.267 96 132.167 96.7667 133.7 98.3C135.233 99.8333 136 101.733 136 104C136 106.267 135.233 108.167 133.7 109.7C132.167 111.233 130.267 112 128 112ZM96 144C93.7333 144 91.8333 143.233 90.3 141.7C88.7667 140.167 88 138.267 88 136C88 133.733 88.7667 131.833 90.3 130.3C91.8333 128.767 93.7333 128 96 128C98.2667 128 100.167 128.767 101.7 130.3C103.233 131.833 104 133.733 104 136C104 138.267 103.233 140.167 101.7 141.7C100.167 143.233 98.2667 144 96 144ZM64 144C61.7333 144 59.8333 143.233 58.3 141.7C56.7667 140.167 56 138.267 56 136C56 133.733 56.7667 131.833 58.3 130.3C59.8333 128.767 61.7333 128 64 128C66.2667 128 68.1667 128.767 69.7 130.3C71.2333 131.833 72 133.733 72 136C72 138.267 71.2333 140.167 69.7 141.7C68.1667 143.233 66.2667 144 64 144ZM128 144C125.733 144 123.833 143.233 122.3 141.7C120.767 140.167 120 138.267 120 136C120 133.733 120.767 131.833 122.3 130.3C123.833 128.767 125.733 128 128 128C130.267 128 132.167 128.767 133.7 130.3C135.233 131.833 136 133.733 136 136C136 138.267 135.233 140.167 133.7 141.7C132.167 143.233 130.267 144 128 144Z" fill="#06DDF6"/>
</g>
</g>
</g>
<defs>
<filter id="filter0_d_1_19" x="-16" y="-11" width="222" height="222" filterUnits="userSpaceOnUse" color-interpolation-filters="sRGB">
<feFlood flood-opacity="0" result="BackgroundImageFix"/>
<feColorMatrix in="SourceAlpha" type="matrix" values="0 0 0 0 0 0 0 0 0 0 0 0 0 0 0 0 0 0 127 0" result="hardAlpha"/>
<feOffset dx="-1" dy="4"/>
<feGaussianBlur stdDeviation="7.5"/>
<feColorMatrix type="matrix" values="0 0 0 0 0 0 0 0 0 0 0 0 0 0 0 0 0 0 0.25 0"/>
<feBlend mode="normal" in2="BackgroundImageFix" result="effect1_dropShadow_1_19"/>
<feBlend mode="normal" in="SourceGraphic" in2="effect1_dropShadow_1_19" result="shape"/>
</filter>
<clipPath id="clip0_1_19">
<rect width="192" height="192" fill="white"/>
</clipPath>
<clipPath id="clip1_1_19">
<rect width="192" height="192" fill="white"/>
</clipPath>
</defs>
</svg>
