<svg width="192" height="192" viewBox="0 0 192 192" fill="none" xmlns="http://www.w3.org/2000/svg">
<g clip-path="url(#clip0_2_98)">
<rect width="192" height="192" rx="40" fill="#0F6D5C"/>
<g clip-path="url(#clip1_2_98)">
<g filter="url(#filter0_d_2_98)">
<path d="M43.0369 168C39.7869 168 36.9683 166.81 34.581 164.43C32.1937 162.05 31 159.24 31 156V47.9999C31 44.7599 32.1937 41.95 34.581 39.57C36.9683 37.1899 39.7869 35.9999 43.0369 35.9999H53.2685V24H65.9073V35.9999H126.093V24H138.732V35.9999H148.963C152.213 35.9999 155.032 37.1899 157.419 39.57C159.806 41.95 161 44.7599 161 47.9999V156C161 159.24 159.806 162.05 157.419 164.43C155.032 166.81 152.213 168 148.963 168H43.0369ZM43.0369 156H148.963V80.3999H43.0369V156ZM43.0369 68.4001H148.963V47.9999H43.0369V68.4001ZM96 110.4C93.9537 110.4 92.2384 109.71 90.8542 108.33C89.4699 106.95 88.7778 105.24 88.7778 103.2C88.7778 101.16 89.4699 99.45 90.8542 98.07C92.2384 96.69 93.9537 96 96 96C98.0463 96 99.7616 96.69 101.146 98.07C102.53 99.45 103.222 101.16 103.222 103.2C103.222 105.24 102.53 106.95 101.146 108.33C99.7616 109.71 98.0463 110.4 96 110.4ZM67.1111 110.4C65.0648 110.4 63.3495 109.71 61.9653 108.33C60.581 106.95 59.8889 105.24 59.8889 103.2C59.8889 101.16 60.581 99.45 61.9653 98.07C63.3495 96.69 65.0648 96 67.1111 96C69.1574 96 70.8727 96.69 72.2569 98.07C73.6412 99.45 74.3333 101.16 74.3333 103.2C74.3333 105.24 73.6412 106.95 72.2569 108.33C70.8727 109.71 69.1574 110.4 67.1111 110.4ZM124.889 110.4C122.843 110.4 121.127 109.71 119.743 108.33C118.359 106.95 117.667 105.24 117.667 103.2C117.667 101.16 118.359 99.45 119.743 98.07C121.127 96.69 122.843 96 124.889 96C126.935 96 128.65 96.69 130.035 98.07C131.419 99.45 132.111 101.16 132.111 103.2C132.111 105.24 131.419 106.95 130.035 108.33C128.65 109.71 126.935 110.4 124.889 110.4ZM96 139.2C93.9537 139.2 92.2384 138.51 90.8542 137.13C89.4699 135.75 88.7778 134.04 88.7778 132C88.7778 129.96 89.4699 128.25 90.8542 126.87C92.2384 125.49 93.9537 124.8 96 124.8C98.0463 124.8 99.7616 125.49 101.146 126.87C102.53 128.25 103.222 129.96 103.222 132C103.222 134.04 102.53 135.75 101.146 137.13C99.7616 138.51 98.0463 139.2 96 139.2ZM67.1111 139.2C65.0648 139.2 63.3495 138.51 61.9653 137.13C60.581 135.75 59.8889 134.04 59.8889 132C59.8889 129.96 60.581 128.25 61.9653 126.87C63.3495 125.49 65.0648 124.8 67.1111 124.8C69.1574 124.8 70.8727 125.49 72.2569 126.87C73.6412 128.25 74.3333 129.96 74.3333 132C74.3333 134.04 73.6412 135.75 72.2569 137.13C70.8727 138.51 69.1574 139.2 67.1111 139.2ZM124.889 139.2C122.843 139.2 121.127 138.51 119.743 137.13C118.359 135.75 117.667 134.04 117.667 132C117.667 129.96 118.359 128.25 119.743 126.87C121.127 125.49 122.843 124.8 124.889 124.8C126.935 124.8 128.65 125.49 130.035 126.87C131.419 128.25 132.111 129.96 132.111 132C132.111 134.04 131.419 135.75 130.035 137.13C128.65 138.51 126.935 139.2 124.889 139.2Z" fill="#1AD3AB"/>
</g>
</g>
</g>
<defs>
<filter id="filter0_d_2_98" x="-16" y="-11" width="222" height="222" filterUnits="userSpaceOnUse" color-interpolation-filters="sRGB">
<feFlood flood-opacity="0" result="BackgroundImageFix"/>
<feColorMatrix in="SourceAlpha" type="matrix" values="0 0 0 0 0 0 0 0 0 0 0 0 0 0 0 0 0 0 127 0" result="hardAlpha"/>
<feOffset dx="-1" dy="4"/>
<feGaussianBlur stdDeviation="7.5"/>
<feColorMatrix type="matrix" values="0 0 0 0 0 0 0 0 0 0 0 0 0 0 0 0 0 0 0.2 0"/>
<feBlend mode="normal" in2="BackgroundImageFix" result="effect1_dropShadow_2_98"/>
<feBlend mode="normal" in="SourceGraphic" in2="effect1_dropShadow_2_98" result="shape"/>
</filter>
<clipPath id="clip0_2_98">
<rect width="192" height="192" fill="white"/>
</clipPath>
<clipPath id="clip1_2_98">
<rect width="192" height="192" fill="white"/>
</clipPath>
</defs>
</svg>
